#N canvas -7 0 1351 980 12;
#X floatatom 362 332 5 0 0 0 - - - 0;
#X floatatom 490 404 5 0 0 1 mod_amp - - 0;
#X text 302 362 Modulator;
#X obj 378 438 *~;
#X obj 380 565 *~;
#X floatatom 412 454 5 0 0 1 carr_frq - - 0;
#X text 319 563 Carrier;
#X obj 599 604 osc~;
#X obj 598 718 *~, f 5;
#X obj 451 263 hsl 162 19 10 2000 1 0 empty empty Carrier -2 -10 0 12 #fcfcfc #000000 #000000 0 1;
#X obj 452 330 *;
#X floatatom 507 314 5 0 0 0 - - - 0;
#X obj 802 649 vline~;
#X floatatom 765 591 5 0 0 0 - - - 0;
#X obj 381 371 osc~;
#X obj 225 67 tgl 19 0 empty empty empty 0 -10 0 12 #fcfcfc #000000 #000000 0 1;
#X obj 230 145 bng 19 250 50 0 empty empty empty 0 -10 0 12 #fcfcfc #000000 #000000;
#X floatatom 660 351 5 20 20000 0 - - - 0;
#X obj 665 398 osc~;
#X floatatom 830 358 5 0 0.5 0 - - - 0;
#X obj 765 394 *~ 0.05;
#X floatatom 764 287 5 20 20000 0 - - - 0;
#X obj 765 314 osc~;
#X floatatom 937 361 5 0 0.5 0 - - - 0;
#X obj 890 394 *~ 0.05;
#X floatatom 889 287 5 20 20000 0 - - - 0;
#X obj 890 314 osc~;
#X floatatom 1053 365 5 0 0.5 0 - - - 0;
#X obj 1006 398 *~ 0.05;
#X floatatom 1005 291 5 20 20000 0 - - - 0;
#X obj 1006 318 osc~;
#X floatatom 1171 365 5 0 0.5 0 - - - 0;
#X obj 1113 399 *~ 0.05;
#X floatatom 1112 292 5 20 20000 0 - - - 0;
#X obj 1113 319 osc~;
#X obj 776 253 * 2;
#X obj 901 253 * 3;
#X obj 1017 257 * 5;
#X obj 1124 258 * 8;
#X obj 662 276 hsl 50 19 40 100 0 0 empty empty empty -2 -10 0 12 #fcfcfc #000000 #000000 0 1;
#X obj 689 448 *~;
#X floatatom 802 202 5 0 0 0 - - - 0;
#X obj 585 550 *~, f 5;
#X text 779 137 Fibonacci Additive Synth;
#X msg 387 158 seed 3.1416;
#X obj 619 646 rev2~ 100 50 1000 40;
#X obj 911 761 output~;
#X text 982 779 <- output monitor;
#X msg 842 594 0.4 200 200 \, 1 300 400 \, 0.7 100 100;
#X obj 224 111 metro 200;
#X text 573 35 ZX_101 \; Prototype;
#X text 354 104 Freq Modulator Synth;
#X obj 429 212 random 800 2000;
#X obj 658 253 * 1;
#X connect 0 0 14 0;
#X connect 1 0 3 1;
#X connect 3 0 4 0;
#X connect 4 0 42 0;
#X connect 5 0 4 1;
#X connect 7 0 45 0;
#X connect 7 0 8 0;
#X connect 8 0 46 0;
#X connect 8 0 46 1;
#X connect 9 0 5 0;
#X connect 9 0 10 0;
#X connect 10 0 0 0;
#X connect 11 0 10 1;
#X connect 12 0 8 1;
#X connect 13 0 12 0;
#X connect 14 0 3 0;
#X connect 15 0 49 0;
#X connect 16 0 48 0;
#X connect 16 0 52 0;
#X connect 17 0 18 0;
#X connect 18 0 40 0;
#X connect 19 0 20 1;
#X connect 20 0 40 1;
#X connect 21 0 22 0;
#X connect 22 0 20 0;
#X connect 23 0 24 1;
#X connect 24 0 40 1;
#X connect 25 0 26 0;
#X connect 26 0 24 0;
#X connect 27 0 28 1;
#X connect 28 0 42 1;
#X connect 29 0 30 0;
#X connect 30 0 28 0;
#X connect 31 0 32 1;
#X connect 32 0 42 1;
#X connect 33 0 34 0;
#X connect 34 0 32 0;
#X connect 35 0 21 0;
#X connect 36 0 25 0;
#X connect 37 0 29 0;
#X connect 38 0 33 0;
#X connect 39 0 17 0;
#X connect 40 0 7 0;
#X connect 41 0 35 0;
#X connect 41 0 38 0;
#X connect 41 0 37 0;
#X connect 41 0 36 0;
#X connect 41 0 53 0;
#X connect 42 0 7 0;
#X connect 44 0 52 0;
#X connect 45 0 8 0;
#X connect 48 0 12 0;
#X connect 49 0 16 0;
#X connect 52 0 9 0;
#X connect 52 0 41 0;
#X connect 53 0 39 0;
