#N canvas 953 0 1920 989 12;
#X obj 18 888 *~;
#X obj 341 840 vline~;
#X obj 14 927 dac~;
#X obj 341 885 *~;
#X obj 338 679 / 127;
#X msg 338 767 \$1 5 \, \$2 200 5;
#X obj 352 707 * 0.5;
#X obj 338 740 pack;
#X obj 521 606 sel 0;
#X floatatom 562 679 5 0 0 0 - - - 0;
#X obj 562 655 receive releaseRate;
#X msg 537 807 0 \$1;
#X obj 562 702 * 20;
#X floatatom 562 726 5 0 0 0 - - - 0;
#X obj 545 767 f;
#X obj 521 698 bng 19 250 50 0 empty empty empty 0 -10 0 12 #fcfcfc #000000 #000000;
#X obj 639 743 loadbang;
#X msg 639 767 700;
#X floatatom 477 385 5 20 20000 0 - - - 0;
#X obj 482 432 osc~;
#X floatatom 647 392 5 0 0.5 0 - - - 0;
#X obj 582 428 *~ 0.05;
#X floatatom 581 321 5 20 20000 0 - - - 0;
#X obj 582 348 osc~;
#X floatatom 754 395 5 0 0.5 0 - - - 0;
#X obj 707 428 *~ 0.05;
#X floatatom 706 321 5 20 20000 0 - - - 0;
#X obj 707 348 osc~;
#X floatatom 870 399 5 0 0.5 0 - - - 0;
#X obj 823 432 *~ 0.05;
#X floatatom 822 325 5 20 20000 0 - - - 0;
#X obj 823 352 osc~;
#X obj 914 431 *~ 0.05;
#X floatatom 929 326 5 20 20000 0 - - - 0;
#X obj 930 353 osc~;
#X obj 593 287 * 2;
#X obj 718 287 * 3;
#X obj 834 291 * 5;
#X obj 941 292 * 8;
#X obj 479 310 hsl 50 19 40 100 0 0 empty empty empty -2 -10 0 12 #fcfcfc #000000 #000000 0 1;
#X obj 506 482 *~;
#X obj 475 287 * 1;
#X obj 13 786 osc~;
#X obj 27 648 *~, f 5;
#X floatatom 51 347 5 0 0 0 - - - 0;
#X floatatom 187 417 5 0 0 1 mod_amp - - 0;
#X text -9 377 Modulator;
#X obj 67 453 *~;
#X obj 69 580 *~;
#X floatatom 109 467 5 0 0 1 carr_frq - - 0;
#X text 8 578 Carrier;
#X obj 140 287 hsl 162 19 10 2000 1 0 empty empty Carrier -2 -10 0 12 #fcfcfc #000000 #000000 0 1;
#X obj 149 343 *;
#X floatatom 204 327 5 0 0 0 - - - 0;
#X obj 70 386 osc~;
#X obj 473 84 ctlin 22;
#X obj 473 114 send releaseRate;
#X obj 337 194 mtof;
#X obj 217 92 notein;
#X obj 180 148 stripnote;
#X floatatom 235 192 5 0 0 0 - - - 0;
#X connect 0 0 2 0;
#X connect 0 0 2 1;
#X connect 1 0 3 0;
#X connect 1 0 3 1;
#X connect 3 0 0 1;
#X connect 4 0 6 0;
#X connect 4 0 7 0;
#X connect 5 0 1 0;
#X connect 6 0 7 0;
#X connect 7 0 5 0;
#X connect 8 0 15 0;
#X connect 9 0 12 0;
#X connect 10 0 9 0;
#X connect 11 0 1 0;
#X connect 12 0 13 0;
#X connect 13 0 14 1;
#X connect 14 0 11 0;
#X connect 15 0 14 0;
#X connect 16 0 17 0;
#X connect 17 0 14 1;
#X connect 18 0 19 0;
#X connect 19 0 40 0;
#X connect 20 0 21 1;
#X connect 21 0 40 1;
#X connect 22 0 23 0;
#X connect 23 0 21 0;
#X connect 24 0 25 1;
#X connect 25 0 40 1;
#X connect 26 0 27 0;
#X connect 27 0 25 0;
#X connect 28 0 29 1;
#X connect 29 0 43 1;
#X connect 29 0 43 0;
#X connect 30 0 31 0;
#X connect 31 0 29 0;
#X connect 32 0 43 0;
#X connect 32 0 43 1;
#X connect 33 0 34 0;
#X connect 34 0 32 0;
#X connect 35 0 22 0;
#X connect 36 0 26 0;
#X connect 37 0 30 0;
#X connect 38 0 33 0;
#X connect 39 0 18 0;
#X connect 40 0 43 0;
#X connect 41 0 39 0;
#X connect 42 0 0 0;
#X connect 43 0 42 0;
#X connect 44 0 54 0;
#X connect 45 0 47 1;
#X connect 47 0 48 0;
#X connect 48 0 43 0;
#X connect 49 0 48 1;
#X connect 51 0 49 0;
#X connect 51 0 52 0;
#X connect 52 0 44 0;
#X connect 53 0 52 1;
#X connect 54 0 47 0;
#X connect 55 0 56 0;
#X connect 57 0 41 0;
#X connect 57 0 38 0;
#X connect 57 0 37 0;
#X connect 57 0 36 0;
#X connect 57 0 35 0;
#X connect 57 0 51 0;
#X connect 58 0 59 0;
#X connect 58 1 59 1;
#X connect 58 2 8 0;
#X connect 59 0 57 0;
#X connect 59 1 60 0;
#X connect 60 0 4 0;
